<svg version="1.1" viewBox="0 0 2671.2 2671.2" xmlns="http://www.w3.org/2000/svg">
  <g transform="translate(10.081 4.7137)">
    <path d="m2543.5 1331.5a1193.3 1193.3 0 0 1-1191.5 1193.3 1193.3 1193.3 0 0 1-1195.2-1189.6 1193.3 1193.3 0 0 1 1187.8-1197 1193.3 1193.3 0 0 1 1198.9 1185.9" style="fill:#e6b0a9;paint-order:stroke fill markers"/>
    <g transform="matrix(1.1555 0 0 1.1555 -214.22 -251.3)">
      <path d="m850.8 1346.3c-26.816-27.667-64.293-43.533-102.82-43.533h-66.699c-45.571 0-82.643 37.08-82.643 82.64v119.64c0 45.573 37.072 82.64 82.643 82.64h215.09c43.983 0 79.767-35.787 79.767-79.76 0-20.84-7.988-40.56-22.489-55.52l-102.84-106.11" style="fill:#18354e"/>
      <path d="m896.37 1522h-215.09c-9.3427 0-16.943-7.6-16.943-16.947v-119.64c0-9.3333 7.6-16.933 16.943-16.933h66.699c20.852 0 41.133 8.5866 55.645 23.56l102.84 106.09h1e-3c2.5573 2.64 3.9667 6.12 3.9667 9.8 0 7.7467-6.312 14.067-14.068 14.067z" style="fill:#e4ff0e"/>
      <path d="m1027.3 818.75c-40.564 0-76.571 24.307-91.728 61.947-0.32667 0.81333-0.62134 1.6267-0.88134 2.4667l-93.887 300.27c-3.1173 9.9867-1.304 20.84 4.8853 29.267 6.1907 8.4133 16.017 13.387 26.468 13.387h922.69c10.453 0 20.28-4.9734 26.467-13.387 6.2-8.4267 8.0134-19.28 4.8934-29.267l-93.893-300.27c-0.2533-0.84-0.5466-1.6533-0.88-2.4667-15.147-37.64-51.16-61.947-91.72-61.947h-612.41" style="fill:#fff"/>
      <path d="m1564 1340.2h-460.95c-18.143 0-32.851 14.707-32.851 32.853 0 18.133 14.708 32.84 32.851 32.84h460.95c18.147 0 32.853-14.707 32.853-32.84 0-18.147-14.707-32.853-32.853-32.853" style="fill:#4c84cc"/>
      <path d="m1564 1522h-460.95c-18.143 0-32.851 14.707-32.851 32.84 0 18.147 14.708 32.853 32.851 32.853h460.95c18.147 0 32.853-14.707 32.853-32.853 0-18.133-14.707-32.84-32.853-32.84" style="fill:#4c84cc"/>
      <path d="m1713.4 1452.4c-14.507 14.96-22.493 34.68-22.493 55.52 0 43.973 35.787 79.76 79.773 79.76h215.08c45.573 0 82.64-37.067 82.64-82.64v-119.64c0-45.56-37.067-82.64-82.64-82.64h-66.693c-38.533 0-76.013 15.867-102.83 43.533l-102.84 106.11" style="fill:#fff"/>
      <path d="m632.3 1820c-25.516 0-49.903-4.92-72.268-13.853-24.792-9.8933-47.1-24.733-65.7-43.28v163.23c0 65.627 53.392 119.01 119.02 119.01h143.58c65.628 0 119.02-53.387 119.02-119.01v-106.09h-243.65" style="fill:#4b3002"/>
      <path d="m2107 1806.2c-22.36 8.9333-46.747 13.853-72.267 13.853h-243.65v106.09c0 65.627 53.4 119.01 119.03 119.01h143.57c65.627 0 119.03-53.387 119.03-119.01v-163.23c-18.6 18.547-40.907 33.387-65.707 43.28" style="fill:#4b3002"/>
      <path d="m400.17 1121.8c0 52.44 32.957 99.613 82.1 117.73 16.447-19.693 36.671-36.107 59.569-48.12 20.317-10.64 42.719-17.853 66.431-20.773l30.237-89.067 22.304-65.707h-154.72c-58.408 0-105.92 47.52-105.92 105.93" style="fill:#80b8e7"/>
      <path d="m2160.9 1015.8h-154.72l22.307 65.707 30.24 89.067c23.707 2.92 46.107 10.133 66.427 20.773 22.907 12.013 43.12 28.427 59.573 48.12 49.147-18.12 82.107-65.293 82.107-117.73 0-58.413-47.52-105.93-105.93-105.93" style="fill:#80b8e7"/>
      <path d="m1690.9 1507.9c0-20.84 7.9867-40.56 22.493-55.52l102.84-106.11c26.813-27.667 64.293-43.533 102.83-43.533h66.693c45.573 0 82.64 37.08 82.64 82.64v119.64c0 45.573-37.067 82.64-82.64 82.64h-215.08c-43.987 0-79.773-35.787-79.773-79.76zm-620.69 46.907c0-18.133 14.708-32.84 32.851-32.84h460.95c18.147 0 32.853 14.707 32.853 32.84 0 18.147-14.707 32.853-32.853 32.853h-460.95c-18.143 0-32.851-14.707-32.851-32.853zm526.65-181.76c0 18.133-14.707 32.84-32.853 32.84h-460.95c-18.143 0-32.851-14.707-32.851-32.84 0-18.147 14.708-32.853 32.851-32.853h460.95c18.147 0 32.853 14.707 32.853 32.853zm-756.03-189.61 93.887-300.27c0.26-0.84 0.55467-1.6533 0.88134-2.4667 15.157-37.64 51.164-61.947 91.728-61.947h612.41c40.56 0 76.573 24.307 91.72 61.947 0.3334 0.81333 0.6267 1.6267 0.88 2.4667l93.893 300.27c3.12 9.9867 1.3066 20.84-4.8934 29.267-6.1866 8.4133-16.013 13.387-26.467 13.387h-922.69c-10.451 0-20.277-4.9734-26.468-13.387-6.1893-8.4267-8.0027-19.28-4.8853-29.267zm-242.16 321.59v-119.64c0-45.56 37.072-82.64 82.643-82.64h66.699c38.529 0 76.007 15.867 102.82 43.533l102.84 106.11c14.501 14.96 22.489 34.68 22.489 55.52 0 43.973-35.784 79.76-79.767 79.76h-215.09c-45.571 0-82.643-37.067-82.643-82.64zm1586.1-265.51c-16.453-19.693-36.667-36.107-59.573-48.12-20.32-10.64-42.72-17.853-66.427-20.773l-30.24-89.067-22.307-65.707-64.707-190.61c-41.36-121.84-155.6-203.69-284.28-203.69h-647.41c-128.67 0-242.91 81.853-284.28 203.69l-64.709 190.61-22.304 65.707-30.237 89.067c-23.712 2.92-46.113 10.133-66.431 20.773-22.899 12.013-43.123 28.427-59.569 48.12-28.349 33.933-45.459 77.56-45.459 125.13v259.89c0 54 22.011 102.95 57.528 138.36 18.6 18.547 40.908 33.387 65.7 43.28 22.365 8.9333 46.752 13.853 72.268 13.853h1402.4c25.52 0 49.907-4.92 72.267-13.853 24.8-9.8933 47.107-24.733 65.707-43.28 35.52-35.413 57.52-84.36 57.52-138.36v-259.89c0-47.573-17.107-91.2-45.453-125.13" style="fill:#80b8e7"/>
      <path d="m872.15 1226.1h922.69c10.453 0 20.28-4.9734 26.467-13.387 6.2-8.4267 8.0134-19.28 4.8934-29.267l-93.893-300.27c-0.2533-0.84-0.5466-1.6667-0.88-2.4667-15.147-37.64-51.16-61.947-91.72-61.947h-612.41c-40.564 0-76.571 24.307-91.728 61.947-0.32667 0.8-0.62134 1.6267-0.88134 2.4667l-93.887 300.27c-3.1173 9.9867-1.304 20.84 4.8853 29.267 6.1907 8.4133 16.017 13.387 26.468 13.387" style="fill:#18354e"/>
      <path d="m996.93 904.23c5.3134-12.053 17.112-19.773 30.361-19.773h612.41c13.24 0 25.04 7.72 30.36 19.773l80.093 256.16h-833.32z" style="fill:#a9dce6"/>
      <path d="m2161.6 1178-32.893 11.84c-1.2267 0.44-2.3867 0.96-3.5334 1.52-20.32-10.64-42.72-17.853-66.427-20.773l-30.24-89.067h132.41c22.187 0 40.227 18.04 40.227 40.227 0 25.133-15.893 47.747-39.547 56.253zm-54.627 748.09c0 29.4-23.92 53.32-53.32 53.32h-143.57c-29.4 0-53.32-23.92-53.32-53.32v-106.09h177.95c25.52 0 49.907-4.92 72.267-13.853zm-773.86-171.8h-700.8c-71.569 0-129.8-58.227-129.8-129.79v-259.89c0-71.573 58.227-129.8 129.8-129.8 14.072 0 26.581-8.96 31.105-22.28l124.32-366.21c32.312-95.173 121.55-159.12 222.07-159.12h647.41c100.52 0 189.76 63.947 222.07 159.12l124.32 366.21c4.52 13.32 17.04 22.28 31.107 22.28 71.573 0 129.8 58.227 129.8 129.8v259.89c0 71.56-58.227 129.79-129.8 129.79h-700.8zm-522.84 171.8c0 29.4-23.919 53.32-53.32 53.32h-143.58c-29.4 0-53.319-23.92-53.319-53.32v-119.95c22.365 8.9333 46.752 13.853 72.268 13.853h177.95zm-304.17-844.57h132.41l-30.237 89.067c-23.712 2.92-46.112 10.133-66.429 20.773-1.1373-0.56-2.3053-1.08-3.528-1.52l-32.897-11.84c-23.652-8.5066-39.544-31.12-39.544-56.253 0-22.187 18.044-40.227 40.224-40.227zm1760.7 40.227c0-58.413-47.52-105.93-105.93-105.93h-154.72l-64.707-190.61c-41.36-121.84-155.6-203.69-284.28-203.69h-647.41c-128.67 0-242.91 81.853-284.28 203.69l-64.711 190.61h-154.72c-58.408 0-105.92 47.52-105.92 105.93 0 52.44 32.957 99.613 82.101 117.73-28.351 33.933-45.46 77.56-45.46 125.13v259.89c0 54 22.011 102.95 57.528 138.36v163.23c0 65.627 53.392 119.01 119.02 119.01h143.58c65.628 0 119.02-53.387 119.02-119.01v-106.09h915.08v106.09c0 65.627 53.4 119.01 119.03 119.01h143.57c65.627 0 119.03-53.387 119.03-119.01v-163.23c35.52-35.413 57.52-84.36 57.52-138.36v-259.89c0-47.573-17.107-91.2-45.453-125.13 49.147-18.12 82.107-65.293 82.107-117.73" style="fill:#18354e"/>
      <path d="m1713.4 1452.4c-14.507 14.96-22.493 34.68-22.493 55.52 0 43.973 35.787 79.76 79.773 79.76h215.08c45.573 0 82.64-37.067 82.64-82.64v-119.64c0-45.56-37.067-82.64-82.64-82.64h-66.693c-38.533 0-76.013 15.867-102.83 43.533l-102.84 106.11" style="fill:#18354e"/>
      <path d="m1919 1368.4h66.693c9.3466 0 16.947 7.6 16.947 16.933v119.64c0 9.3467-7.6 16.947-16.947 16.947h-215.08c-7.76 0-14.08-6.32-14.08-14.067 0-3.68 1.4133-7.16 3.9733-9.8l102.84-106.09c14.52-14.973 34.8-23.56 55.653-23.56z" style="fill:#e4ff0e"/>
      <path d="m1596.8 1554.8c0-18.133-14.707-32.84-32.853-32.84h-460.95c-18.143 0-32.851 14.707-32.851 32.84 0 18.147 14.708 32.853 32.851 32.853h460.95c18.147 0 32.853-14.707 32.853-32.853" style="fill:#18354e"/>
      <path d="m1103 1340.2c-18.143 0-32.851 14.707-32.851 32.853 0 18.133 14.708 32.853 32.851 32.853h460.95c18.147 0 32.853-14.72 32.853-32.853 0-18.147-14.707-32.853-32.853-32.853h-460.95" style="fill:#18354e"/>
    </g>
    <path d="m330.83 1973.5 1888-1410.7m298.67 768a1192 1192 0 0 1-1190.2 1192 1192 1192 0 0 1-1193.8-1188.3 1192 1192 0 0 1 1186.4-1195.7 1192 1192 0 0 1 1197.5 1184.6" style="fill:none;paint-order:stroke fill markers;stroke-linecap:round;stroke-linejoin:round;stroke-miterlimit:12;stroke-width:287.16;stroke:#5e1203"/>
    <path d="m330.83 1973.5 1888-1410.7m298.67 768a1192 1192 0 0 1-1190.2 1192 1192 1192 0 0 1-1193.8-1188.3 1192 1192 0 0 1 1186.4-1195.7 1192 1192 0 0 1 1197.5 1184.6" style="fill:none;paint-order:stroke fill markers;stroke-linecap:round;stroke-linejoin:round;stroke-miterlimit:12;stroke-width:233.66;stroke:#da2907"/>
  </g>
</svg>
