<?xml version="1.0" encoding="UTF-8" standalone="no"?>
<!-- Created with Inkscape (http://www.inkscape.org/) -->

<svg
   viewBox="-35 10 164.28624 161.42644"
   version="1.1"
   id="svg5"
   inkscape:version="1.1 (c4e8f9e, 2021-05-24)"
   sodipodi:docname="logo.svg"
   width="164.28624"
   height="161.42644"
   xmlns:inkscape="http://www.inkscape.org/namespaces/inkscape"
   xmlns:sodipodi="http://sodipodi.sourceforge.net/DTD/sodipodi-0.dtd"
   xmlns:xlink="http://www.w3.org/1999/xlink"
   xmlns="http://www.w3.org/2000/svg"
   xmlns:svg="http://www.w3.org/2000/svg">
  <sodipodi:namedview
     id="namedview7"
     pagecolor="#505050"
     bordercolor="#ffffff"
     borderopacity="1"
     inkscape:showpageshadow="0"
     inkscape:pageopacity="0"
     inkscape:pagecheckerboard="1"
     inkscape:deskcolor="#505050"
     inkscape:document-units="mm"
     showgrid="false"
     inkscape:zoom="1.9384961"
     inkscape:cx="-321.89903"
     inkscape:cy="98.52999"
     inkscape:window-width="3440"
     inkscape:window-height="1328"
     inkscape:window-x="0"
     inkscape:window-y="34"
     inkscape:window-maximized="1"
     inkscape:current-layer="text236"
     inkscape:lockguides="false"
     showguides="true"
     inkscape:pageshadow="0"
     fit-margin-top="0"
     fit-margin-left="0"
     fit-margin-right="0"
     fit-margin-bottom="0" />
  <defs
     id="defs2">
    <linearGradient
       inkscape:collect="always"
       id="linearGradient1272">
      <stop
         style="stop-color:#642580;stop-opacity:1;"
         offset="0"
         id="stop1268" />
      <stop
         style="stop-color:#390076;stop-opacity:1;"
         offset="0.07937524"
         id="stop1276" />
      <stop
         style="stop-color:#0a7239;stop-opacity:0.94117647;"
         offset="0.17566937"
         id="stop1278" />
      <stop
         style="stop-color:#037831;stop-opacity:0.89411765;"
         offset="0.24846654"
         id="stop1282" />
      <stop
         style="stop-color:#d6c810;stop-opacity:1;"
         offset="0.39205241"
         id="stop1280" />
      <stop
         style="stop-color:#1518c6;stop-opacity:1;"
         offset="0.56659716"
         id="stop1284" />
      <stop
         style="stop-color:#157ff4;stop-opacity:0.99761367;"
         offset="0.71022087"
         id="stop1286" />
      <stop
         style="stop-color:#006f1e;stop-opacity:1;"
         offset="1"
         id="stop1270" />
    </linearGradient>
    <linearGradient
       inkscape:collect="always"
       xlink:href="#linearGradient1272"
       id="linearGradient50114"
       gradientUnits="userSpaceOnUse"
       x1="82.40258"
       y1="89.872307"
       x2="209.35355"
       y2="89.872307"
       gradientTransform="matrix(5.2886029,0,0,4.6423493,-629.16685,-364.28264)" />
    <linearGradient
       inkscape:collect="always"
       xlink:href="#linearGradient1272"
       id="linearGradient50120"
       gradientUnits="userSpaceOnUse"
       x1="82.40258"
       y1="89.872307"
       x2="209.35355"
       y2="89.872307"
       gradientTransform="matrix(5.2886029,0,0,4.6423493,-629.16685,-364.28264)" />
    <linearGradient
       inkscape:collect="always"
       xlink:href="#linearGradient1272"
       id="linearGradient50122"
       gradientUnits="userSpaceOnUse"
       x1="82.40258"
       y1="89.872307"
       x2="209.35355"
       y2="89.872307"
       gradientTransform="matrix(5.2886029,0,0,4.6423493,-629.16685,-364.28264)" />
  </defs>
  <g
     inkscape:label="Layer 1"
     inkscape:groupmode="layer"
     id="layer1"
     transform="translate(161.05893,60.812041)">
    <g
       aria-label="Fat   .Rocks"
       id="text236"
       style="font-size:25.4px;line-height:0.85;stroke-width:0.264583"
       transform="translate(0,0.1063931)">
      <g
         id="g4937">
        <path
           style="font-family:JFRockOutcrop;-inkscape-font-specification:'JFRockOutcrop, Normal';stroke-width:1.22829;filter:url(#filter57856)"
           d="m -90.88696,-24.06319 v -0.117915 0.235831 z"
           id="path474"
           transform="matrix(1.1392083,0,0,1,-51.145931,-1.031712)" />
        <path
           style="font-family:JFRockOutcrop;-inkscape-font-specification:'JFRockOutcrop, Normal';stroke-width:1.22829;filter:url(#filter57856)"
           d="m -52.918106,-40.453469 q 0,-0.117915 -0.117934,-0.117915 z"
           id="path472"
           transform="matrix(1.1392083,0,0,1,-51.145931,-1.031712)" />
        <path
           style="font-family:JFRockOutcrop;-inkscape-font-specification:'JFRockOutcrop, Normal';stroke-width:1.22829;filter:url(#filter57856)"
           d="m -52.682282,3.1753363 1.414985,1.2970739 z"
           id="path470"
           transform="matrix(1.1392083,0,0,1,-51.145931,-1.031712)" />
        <path
           style="font-family:JFRockOutcrop;-inkscape-font-specification:'JFRockOutcrop, Normal';stroke-width:1.22829;filter:url(#filter57856)"
           d="m -52.682282,3.1753363 q 0.117934,0 0.235834,-0.2358458 0.117935,-0.3537464 0.353747,-0.5895699 h -0.117934 q 0.235834,-0.2358346 0.471669,-0.3537464 0.235824,-0.2358346 0.58957,-1.88665486 v -0.94331628 q 0,-2.82998246 -1.650809,-4.71663736 l -4.009145,-3.8912104 q 3.537464,-0.5895813 5.42413,-2.8299823 1.886644,-2.240392 1.886644,-6.013696 v -1.650819 q 0,-0.943325 0,-2.122482 0.117923,-1.179155 0.117923,-2.358314 0,-1.768734 -0.353746,-3.419553 -0.235824,-1.650819 -1.297063,-2.712059 0.58957,-0.58958 0.825405,-0.943327 h -0.117935 q 0.353747,-0.589578 0.353747,-1.06124 0.117934,-0.589579 0.117934,-0.82541 0,-4.12705 -2.594137,-6.721194 l -0.471658,-0.353748 -0.117934,-0.117915 -3.419563,-3.53747 q -2.12249,-4.127049 -7.546609,-4.834543 h -2.829971 q -1.179151,0 -2.358313,0.117916 -1.179162,0 -2.358313,0.117916 h -0.353746 q -1.06124,0.117915 -2.12249,0.235832 -0.943316,0 -1.886644,0 h -0.943327 q -0.235824,0 -0.471658,0 -0.117934,-0.117916 -0.353747,-0.117916 h -1.532908 q -0.943328,0 -1.886644,0.235831 -0.943327,0.23583 -1.768732,0.471663 h 0.117923 q -0.117923,0 -0.235824,0.117915 0,0 -0.117934,0 -0.117934,0 -0.235834,0.117915 -0.117923,0 -0.235824,0 -1.532919,0.589579 -2.476236,0.589579 -2.358313,0 -5.188295,-1.650819 l -7.782421,-0.589579 v -0.117915 q -0.943327,-0.235833 -2.00457,-0.353748 -0.94332,-0.117915 -2.35831,-0.117915 -2.71207,0 -5.07038,1.297073 -1.17915,-0.943325 -2.00456,-0.943325 h -2.00457 q -3.06582,0 -5.77788,0.23583 -2.59414,0.117916 -4.59871,1.061241 -2.00456,0.943325 -3.18372,3.065808 -1.06124,2.004566 -1.06124,5.777868 0,1.06124 0,2.122483 0,0.943324 0.11791,1.88665 0.11792,0.943325 0.11792,1.650819 0,0.707494 0,1.532903 v 2.004567 q 0,0.235832 0,0.353747 0.11792,0 0.11792,0.117915 0.23582,1.768737 0.35375,3.183724 0.23583,1.414989 0.23583,2.947893 v 1.88665 q 0.11791,1.414987 1.29706,2.358313 -1.17915,1.179158 -1.65082,2.947892 0,0.235832 -0.11791,0.471663 0,0.117916 0,0.353747 v 0.471664 q -0.23583,3.773297 -0.47166,7.4286843 -0.11792,3.5374752 -0.11792,7.3107739 0,2.0045666 0,3.8912215 0.11792,1.8866438 0.23583,3.7732875 0,0.5895811 0,1.297085 0.11792,0.5895809 0.11792,1.1791619 0.11792,1.2970629 0.11792,2.4762139 0.11791,1.179173 0.11791,2.476236 0,1.297074 -0.11791,2.476225 0,1.179151 -0.11792,2.476236 -0.11792,1.297073 -0.23583,2.594136 0,1.179151 0,2.476236 0,2.24039 1.5329,4.127056 0,0.117934 0.11791,0.117934 0.11792,0.235824 0.23584,0.471659 0.11792,0.117934 0.23583,0.353746 -0.47167,0.707493 -0.58958,0.825405 -0.47166,0.707492 -0.8254,1.17915 -0.23584,0.47167 -0.47167,0.825416 -0.11792,1.297063 -0.23583,2.240401 0,0.943328 -0.11792,1.886644 0,0.825405 0,1.768732 0,0.943339 0,2.12249 0,3.537464 0.82542,6.131611 0.8254,2.594137 3.41955,3.655387 l 4.36288,4.362891 q 2.00456,2.004556 6.13162,2.004556 h 1.29707 q 0.35375,0 0.70749,0 0.35375,0.117934 0.7075,0.117934 2.12248,0 3.89121,-0.707493 0.23584,-0.235835 0.47166,-0.235835 0.23584,0 0.47167,-0.235823 l 0.7075,0.707493 q 0.70749,0.707481 2.24039,0.707481 0.47166,0 0.7075,-0.117923 0.23582,0 0.8254,-0.235834 1.061242,-0.117934 3.183732,-0.235835 2.12249,-0.117923 3.773299,-0.117923 0.825404,0 1.414985,0.117923 0.471658,0 1.06124,0 0.589569,0.117934 0.943316,0.117934 0.235834,0 0.589581,0 0.353757,0 0.825427,-0.235823 l 0.117923,0.117923 q 2.712059,-0.58957 3.773298,-2.829983 1.061251,-2.24039 1.061251,-4.598714 v -1.179151 l -0.943339,-12.852804 q -0.117934,-0.58957 -0.589581,-2.358314 -0.353746,-1.886643 -1.414974,-2.947882 2.122467,-1.768755 2.122467,-3.655399 0,-0.235823 -0.117923,-0.471658 0,-0.235834 0,-0.471658 1.532908,0.353747 3.183729,0.353747 h 0.825404 l 2.594148,-0.825405 q 0.235835,0 0.471669,0.117923 0.353747,0.117934 0.707482,0.235835 h 0.117934 q 0.825404,0.353746 1.65082,0.589569 0.943316,0.235835 2.004567,0.235835 0.943327,0 1.532908,0 0.58957,-0.117934 1.179151,-0.235835 0.58957,-0.117922 0.943317,-0.117922 0.471669,0 0.943338,0 h 1.532909 q 0.353735,-0.235835 0.943316,-0.825405 0.707493,-0.707493 1.061239,-1.297085 l 0.117934,0.117923 0.117923,-0.353746 q 0.47167,0.471669 0.707493,0.589592 0.825427,0.707493 1.768743,1.297074 0.943328,0.471658 2.358313,0.471658 2.004578,0 3.655387,-0.825405 1.768732,-0.825404 2.947883,-2.240412 1.297085,-1.414975 2.004578,-3.183707 0.707493,-1.886666 0.707493,-3.77331 0,-2.594147 -0.117934,-5.306207 0,-2.712059 -0.58957,-5.7778649 -0.235835,-0.1179229 -0.707493,-0.5895698 -0.471669,-0.4716694 -0.707493,-0.7074929 z"
           id="path468"
           transform="matrix(1.1392083,0,0,1,-51.145931,-1.031712)" />
        <path
           style="font-family:JFRockOutcrop;-inkscape-font-specification:'JFRockOutcrop, Normal';stroke-width:1.22829;filter:url(#filter57856)"
           d="m -113.40885,-27.364828 q -0.11791,0 -0.11791,0.235831 0,0.117915 0.11791,0.117915 0.11791,0 0.11791,-0.117915 0,-0.235831 -0.11791,-0.235831 z"
           id="path398"
           transform="matrix(1.1392083,0,0,1,-51.145931,-1.031712)" />
        <path
           style="font-family:JFRockOutcrop;-inkscape-font-specification:'JFRockOutcrop, Normal';fill:url(#linearGradient50114);fill-opacity:1;stroke-width:1.311"
           d="m -177.25264,46.361994 q -0.80599,0 -1.07465,0.471663 -0.26866,0.353747 -0.94031,0.589578 -1.47764,0.589578 -3.35826,0.589578 -1.7463,-0.117915 -3.35827,-0.117915 -4.70157,0 -6.04487,-2.240398 -1.34331,-2.358314 -1.34331,-6.013699 0,-1.061242 0,-1.768736 0,-0.825409 0,-1.532903 0.13434,-0.82541 0.13434,-1.768735 0.13433,-0.943326 0.26866,-2.240398 0.40299,-0.943326 1.20897,-1.65082 0.94031,-0.825409 0.94031,-1.768735 0,-1.414988 -1.20897,-2.476229 -1.20897,-1.179156 -1.20897,-2.71206 0,-2.476229 0.26866,-4.952458 0.26866,-2.594145 0.26866,-5.070374 0,-3.7733019 -0.40299,-7.5466034 -0.26867,-3.7733015 -0.26867,-7.546603 0,-4.0091328 0.26867,-7.90035 0.26866,-3.8912176 0.53732,-8.0182656 0.26866,-0.943326 1.3433,-1.768735 1.20898,-0.943326 1.20898,-1.886651 0,-0.589578 -0.94032,-0.943325 -0.94031,-0.353747 -1.20897,-1.179157 0.13433,-2.712061 -0.13433,-4.480796 -0.26866,-1.88665 -0.67165,-4.244964 0.13433,-2.240398 -0.13433,-4.244964 -0.13433,-2.122482 -0.13433,-4.36288 0,-2.829976 1.07464,-4.36288 1.07464,-1.650819 2.95527,-2.358313 1.88063,-0.82541 4.43291,-0.943326 2.55228,-0.117915 5.50755,-0.117915 h 2.28362 q 0.53732,0 0.53732,0.353747 0,0.471662 -0.80598,1.650819 -0.67166,1.061241 -0.80599,1.297073 l -3.49259,9.315338 q -0.40299,1.061241 -0.40299,2.240397 0,1.061241 0.40299,2.358314 0.40299,1.179157 1.07464,2.122482 v -0.235831 q 0,-1.061241 -0.26866,-2.004567 -0.13433,-1.061241 -0.13433,-2.004566 0,-0.235832 0,-0.707494 0.13433,-0.589579 0.13433,-0.82541 0.13433,-0.943325 0.94032,-2.240398 0.80598,-1.297072 2.01495,-1.297072 0.67166,0 1.07465,0.117916 0.40299,0.117915 1.3433,0.353747 0.94032,0.235831 2.01496,0.589578 1.20898,0.353747 2.14929,0.707494 0.94031,0.235831 1.3433,0.353747 1.07465,0.353747 2.41795,0.82541 1.47764,0.471662 2.28362,1.297072 0,0 0.13433,0.471663 0.26866,0.471662 0.53733,1.061241 0.26866,0.471663 0.67165,0.943325 0.40299,0.353747 0.67165,0.353747 0,-2.240398 -1.07464,-3.419554 -1.07465,-1.179157 -2.82094,-1.768735 -1.61197,-0.707494 -3.62693,-0.943326 -1.88063,-0.235831 -3.62692,-0.589578 -1.61197,-0.353747 -2.68661,-0.943325 -1.07465,-0.707495 -1.07465,-2.122483 0,-3.301638 2.82094,-5.424121 2.82094,-2.240397 6.31354,-2.240397 1.07464,0 2.14929,0.117915 1.07464,0.117916 2.14928,0.353747 l 8.46282,0.707494 q 3.22393,1.65082 6.98519,1.65082 2.14929,0 4.02991,-0.707494 1.88063,-0.82541 3.76126,-0.82541 0.94031,0 1.74629,0.117916 0.94032,0 2.01496,0 2.55228,0 5.10456,-0.235832 2.55228,-0.235831 5.23889,-0.235831 h 2.95527 q 3.4926,0.353747 5.37322,2.358314 2.01496,1.88665 2.01496,4.952458 0,0.117915 0,0.471662 0,0.235832 -0.13433,0.353747 -0.67165,1.061242 -2.14929,1.061242 h -0.40299 q -0.26866,-0.471663 -0.94031,-1.061242 -0.67165,-0.589578 -1.47764,-0.589578 h -0.26866 q 0.67165,0.707494 1.07465,1.414988 0.40299,0.589579 0.80598,1.179157 0.53732,0.589578 1.20897,0.943325 0.67166,0.235832 1.7463,0.235832 0.67165,0.353747 0.80598,1.88665 0.26866,1.414988 0.26866,3.301639 0,1.768735 -0.13433,3.53747 0,1.65082 0,2.358314 0,6.485362 -7.11951,6.839109 -4.29858,0.235831 -7.25385,0.471662 -2.95527,0.117916 -6.5822,0.117916 -2.55228,0 -4.56723,-0.943325 -2.01496,-1.061241 -4.02992,-2.240398 -1.88063,-1.297072 -4.02992,-2.358313 -2.01495,-1.061241 -4.83589,-1.061241 -0.13433,0 -0.80599,0.117915 -0.53732,0 -0.53732,0.353747 v 0.117916 q 0.53732,0.589578 2.01496,1.179157 1.61197,0.471662 3.22393,1.179156 1.7463,0.589579 2.95527,1.414988 1.34331,0.707494 1.34331,1.65082 0,0.353747 -1.61197,0.589578 -1.47763,0.117916 -3.49259,0.471663 -2.01496,0.235831 -4.02992,0.707494 -2.01495,0.471663 -3.08959,1.297072 -0.94032,0.82541 -2.01496,1.768735 -1.07465,0.943326 -1.34331,2.240398 -0.26866,1.297073 -0.53732,3.0658076 -0.26866,1.6508194 -0.26866,3.1837232 h 0.13433 q 0.67165,-1.8866508 1.34331,-2.9478918 0.67165,-1.0612411 1.47763,-1.7687351 0.94032,-0.8254099 2.01495,-1.5329039 1.20898,-0.707494 2.82094,-2.004566 h 0.13434 q 0.13433,0 0.53732,0.235831 0.40299,0.235831 0.53732,0.235831 2.68661,0.235832 4.8359,0.471663 2.14929,0.235831 3.62692,2.358314 h 0.13433 q 0.26866,0 0.80599,-0.82541 0.67165,-0.82541 1.3433,-1.061241 0.13433,0 0.40299,0 0.26866,-0.117916 0.40299,-0.117916 h 3.62693 q 0.53732,0 1.61196,0 1.20898,0 2.41795,0 1.34331,0 2.41795,0.117916 1.07465,0.117915 1.47764,0.235831 l 0.26866,0.235831 q 0.13433,0 1.20897,0.943326 1.07465,0.8254096 1.7463,1.2970722 0.26866,0.1179157 0.53732,0.1179157 0.26866,0 0.26866,-0.2358313 0,-0.4716627 -0.40299,-0.7074936 -0.26866,-0.235832 -0.26866,-0.589579 0,-0.353747 0.53732,-0.589578 0.67166,-0.353747 1.47764,-0.471663 0.80598,-0.235831 1.47763,-0.353747 0.80599,-0.117916 1.07465,-0.117916 2.28362,0 3.49259,1.179157 1.20898,1.1791569 1.20898,3.1837233 v 0.9433254 q -0.26866,0.8254097 -1.07465,1.5329037 -0.67165,0.5895784 -0.67165,1.5329038 0,0.5895783 0.67165,1.2970724 0.80599,0.707494 1.07465,0.9433253 0.53732,2.5941448 0.53732,5.1882896 0.13433,2.4762291 0.13433,4.9524582 0,3.0658073 -2.41795,5.5420363 -2.28362,2.476229 -5.91054,2.476229 -0.94032,0 -1.7463,-0.353747 -0.80598,-0.471662 -1.47764,-0.943325 -0.67165,-0.589578 -1.47763,-0.943325 -0.80598,-0.471663 -1.7463,-0.471663 -0.67165,0 -0.67165,0.353747 l -0.67165,1.650819 q 0,0.117916 -0.26866,0.353747 -0.26867,0.235832 -0.53733,0.353747 -1.74629,-0.235831 -3.35826,0.117916 -1.47763,0.235831 -3.0896,0.235831 -1.61197,0 -3.0896,-0.589578 -1.47764,-0.589578 -2.55228,-0.589578 h -0.26866 l -2.95527,0.825409 h -0.67166 q -1.47763,0 -3.0896,-0.353747 -1.61197,-0.353747 -2.82094,-0.943325 -0.40299,-0.117916 -1.07464,-0.707494 -0.67166,-0.707494 -1.47763,-1.297072 -0.67166,-0.707494 -1.34331,-1.179157 -0.53732,-0.589578 -0.67165,-0.589578 h -0.13433 q 0,2.122482 0.67165,3.301638 0.80598,1.179157 1.7463,1.886651 0.94031,0.707494 1.61196,1.297073 0.80598,0.471662 0.80598,1.179156 0,1.061241 -1.47763,2.004567 -1.3433,0.825409 -2.95527,1.88665 -1.61197,0.943326 -3.0896,2.122483 -1.34331,1.179156 -1.34331,2.71206 0.80599,0 1.7463,-0.471663 0.94031,-0.471662 1.7463,-1.061241 0.94031,-0.707494 1.61196,-1.297072 0.67165,-0.707494 1.07465,-0.943326 0.13433,-0.117915 0.67164,-0.117915 0.53733,0 0.94032,0.589578 0.40299,0.589579 0.53732,1.297073 0.26866,0.707494 0.26866,1.414988 0.13433,0.707494 0.13433,0.943325 l 1.07464,12.734893 v 1.179156 q 0,1.768735 -0.80598,3.419555 -0.80598,1.532904 -2.95526,2.004566 -0.13434,0.117916 -0.53733,0.117916 -0.40299,0 -0.67165,0 -0.94031,0 -1.88063,-0.117916 -0.94031,-0.117915 -2.01495,-0.117915 -1.88063,0 -4.43291,0.117915 -2.41795,0.117916 -3.62693,0.235832 -0.53732,0 -0.94031,0.235831 -0.26866,0.117916 -0.67165,0.117916 -0.67165,0 -0.94031,-0.235832 -0.26867,-0.353747 -0.67166,-0.707494 -0.26866,-0.353747 -0.67165,-0.589578 -0.26866,-0.353747 -0.94031,-0.353747 z"
           id="path466" />
      </g>
      <g
         id="g4929"
         transform="translate(-43.335174,-53.388791)">
        <path
           style="font-family:JFRockOutcrop;-inkscape-font-specification:'JFRockOutcrop, Normal';stroke-width:1.22829;filter:url(#filter57856)"
           d="m -86.083119,142.02038 q -1.297063,0.47167 -1.532898,1.76873 -0.235834,1.17916 -0.235834,1.88665 v 0.11793 q 0,1.65083 0.235834,3.18373 0.353747,1.41499 1.297074,2.9479 0.943316,1.41498 2.594148,3.0658 1.650809,1.65081 4.362868,3.7733 2.358325,2.35831 7.310763,2.35831 1.65082,0 2.712071,-0.58958 1.179151,-0.58957 2.122478,-1.17915 h 0.117923 q 0.235835,-0.23583 0.235835,-0.23583 0.117934,0 0.353746,-0.11793 0.117934,0.11793 0.235823,0.11793 0.235835,0.11793 0.47167,0.23583 l -0.117934,-0.11793 q 0.471658,0.35374 1.061239,0.70749 0.589592,0.35375 1.414997,0.58958 2.829971,0.58957 4.480802,0.58957 1.768732,0.11793 4.362869,0.11793 6.249534,-0.58957 8.725871,-3.1837 2.476393,-2.47625 2.476393,-6.60329 -0.235835,-1.17916 -0.235835,-2.47623 0,-1.29706 -0.117934,-2.47624 -0.117923,-1.29707 -0.471669,-2.47622 -0.235835,-1.17915 -1.061318,-2.3583 0.707538,-0.58959 1.061318,-1.17918 0.471669,-0.58956 0.707537,-1.76873 0,-3.0658 0,-4.24495 0.117934,-1.29708 0.117934,-2.12248 0.353747,-0.7075 -0.943406,-3.18373 -1.297129,-2.47623 -3.419764,-5.07037 -2.004545,-2.71206 -4.598692,-4.71664 -2.476225,-2.00456 -4.598715,-2.00456 -1.179151,0 -1.65082,0.23584 -0.471658,0.23582 -1.179151,0.47166 -0.58957,0.35374 -0.943316,0.35374 -0.471669,-0.58958 -0.707493,-0.70749 -0.235835,-0.23583 -0.47168,-0.70749 -2.004556,-0.23584 -2.947883,-0.23584 -0.825405,-0.11792 -2.12249,-0.11792 -1.297074,0 -2.947883,0.23582 -1.65082,0.23584 -2.594136,1.5329 -1.179151,-0.94332 -2.712049,-1.41497 -1.532919,-0.58958 -3.183728,-0.58958 -1.532909,0 -3.183718,0.70749 -1.53292,0.58958 -2.829982,1.76873 -1.297074,1.06124 -2.240391,2.59415 -0.825426,1.53289 -1.061261,3.18372 0,0.47165 -0.117923,1.76874 0,1.29707 0,2.94788 0,1.5329 -0.117934,3.06582 0,1.5329 0,2.3583 0,1.17915 0.353746,3.30164 0.471658,2.12248 1.53292,3.89122 z"
           id="path494"
           transform="matrix(1.1392083,0,0,1,-51.145931,-1.031712)" />
        <path
           style="font-family:JFRockOutcrop;-inkscape-font-specification:'JFRockOutcrop, Normal';fill:url(#linearGradient50120);fill-opacity:1;stroke-width:1.311"
           d="m -129.73463,151.60107 q -1.07465,-0.23583 -2.01496,-0.94332 -0.80598,-0.7075 -1.7463,-0.7075 -0.94029,0 -2.55226,1.17916 -1.61197,1.06124 -3.89558,1.06124 -8.59716,0 -8.59716,-7.42869 0,-0.23583 0,-0.94332 0,-0.7075 0.67166,-0.7075 0.53732,0 0.94031,0.11792 0.53732,0 1.20897,0 0.94032,0 1.61197,-0.23583 0.67165,-0.35375 1.47764,-0.35375 0.80598,0 1.07464,0.7075 0.40299,0.70749 0.67165,1.65081 0.26866,0.82541 0.53732,1.53291 0.403,0.70749 1.20898,0.70749 0,-0.58958 -0.26866,-1.76873 -0.26866,-1.29708 -0.80599,-2.47623 -0.40299,-1.29707 -1.07464,-2.2404 -0.53732,-0.94333 -1.20897,-0.94333 -0.53733,0 -0.67166,0.11792 l -1.20897,1.06124 h -0.13433 q -1.34331,0 -2.14929,-0.82541 -0.80598,-0.94332 -1.34331,-2.00456 -0.40299,-1.17916 -0.53732,-2.35832 -0.13433,-1.29707 -0.13433,-2.00456 0,-2.47623 0.13433,-4.95246 0.13433,-2.47623 0.13433,-4.95246 0.40299,-2.47623 2.82094,-4.24497 2.41795,-1.88665 5.10456,-1.88665 2.41795,0 4.29858,1.06125 1.88063,0.94332 2.01496,3.30163 l 0.5373,7.31078 q 0,0.23583 0.13433,0.58957 0.13433,0.35375 0.403,0.35375 h 0.13433 l 0.13433,-0.70749 0.40299,-4.4808 q 0,-0.35375 0.13433,-0.82541 0.13433,-0.58958 0.67165,-0.58958 0.26866,0 0.40299,0.11792 0.26866,0 0.53733,0 v -0.35375 q -0.403,-0.82541 -0.94032,-1.5329 -0.40299,-0.82541 -0.40299,-1.76874 0,-1.65082 1.61197,-1.88665 1.61196,-0.35374 2.95527,-0.35374 1.20897,0 2.01496,0 0.94031,0 2.41794,0.23583 0.403,0.47166 1.07465,1.06124 0.80598,0.47166 1.47763,0.47166 1.20898,0 2.14929,-0.47166 1.07465,-0.58958 2.28362,-0.58958 3.0896,0 4.70157,2.2404 1.7463,2.12248 1.7463,4.48079 0,0.82541 -0.13433,3.06581 0,2.12248 0,3.06581 -0.13434,0.82541 -0.67166,1.29707 -0.53732,0.47166 -1.20897,0.82541 -0.67165,0.35375 -1.34331,0.82541 -0.67165,0.35375 -1.07464,1.06124 -0.53732,0.94333 -1.34331,2.12248 -0.67165,1.06124 -0.67165,2.2404 h 0.26866 q 0.67165,0 1.07465,-0.58958 0.40299,-0.70749 0.80598,-1.41499 0.40299,-0.70749 0.80598,-1.29707 0.53732,-0.70749 1.34331,-0.70749 1.07464,0 1.3433,1.17915 0.26866,1.06125 0.26866,1.65082 0,0.23584 0,0.94333 0.13433,0.70749 0.13433,1.5329 0.13433,0.7075 0.13433,1.41499 0.13434,0.58958 0.13434,0.94333 0.13433,0.35374 0.13433,0.94332 0,6.83911 -7.52251,7.78244 h -2.95527 q -2.68661,0 -4.56724,0 -1.88063,-0.11792 -5.10456,-0.7075 z"
           id="path404" />
      </g>
      <g
         id="g4925"
         transform="translate(-43.488165,-49.700917)">
        <path
           id="path514"
           style="font-family:JFRockOutcrop;-inkscape-font-specification:'JFRockOutcrop, Normal';stroke-width:1.22829;filter:url(#filter57856)"
           d="m 18.508127,159.82565 q 0.943327,0.94331 2.71207,1.06124 l 4.834538,0.35374 h 14.975294 l 3.537464,-0.11793 q 0.943316,-0.35375 1.532909,-0.47166 0.707492,-0.11793 1.414985,-0.11793 h 1.061239 q 2.122479,-0.11794 3.419564,-1.17915 1.297062,-1.06124 2.004555,-2.59416 0.707493,-1.41498 0.943328,-3.0658 0.235823,-1.65081 0.235823,-3.06581 0,-4.83454 -0.943316,-8.72575 -0.825416,-3.89122 -4.244968,-7.31078 l -3.655376,-3.65539 q -1.06125,-1.5329 -3.065817,-3.53746 v 0.23583 q -0.825404,-0.70749 -1.886644,-1.17916 -0.943338,-0.58959 -2.122489,-0.82541 l -0.235835,-0.23584 q 2.594159,-1.17915 4.834549,-3.06579 2.358325,-2.00458 4.009134,-4.36289 1.768732,-2.35831 2.712048,-4.95245 1.061261,-2.71207 1.061261,-5.30621 0,-0.23583 -0.117934,-0.58958 0,-0.47166 0,-0.8254 -0.117934,-0.23584 -0.117934,-0.58958 1.768732,-1.88666 2.358313,-3.77321 0.58957,-1.88664 0.58957,-4.598688 0,-0.825405 -0.353746,-3.065817 -0.235824,-2.240391 -0.825405,-4.834538 -0.589581,-2.594137 -1.532897,-4.952461 -0.825427,-2.358302 -2.004578,-3.537464 l -2.829971,-2.712059 q 0,-0.235835 0,-0.47167 0.117934,-0.235823 0.117934,-0.471658 0,-1.53292 -0.117934,-2.12249 -0.825405,-1.297073 -1.768743,-2.476224 -0.943317,-1.179151 -2.122479,-2.358325 l -0.353746,-0.235823 q 0,0 0,0 0.117934,0 0.117934,0.117923 L 40.676249,68.087359 Q 38.200036,64.431961 34.426726,61.602001 30.77135,58.772018 26.644294,57.474944 26.40847,57.35701 26.172636,57.35701 q -0.117935,0 -0.353747,-0.117923 -3.065806,-0.825415 -6.721204,-1.532897 -3.537453,-0.825427 -6.60327,-0.825427 h -0.235834 q -0.943317,0 -2.122467,0.117934 -1.061262,0.117923 -1.768755,1.061251 -1.650809,-1.061251 -2.947883,-1.061251 -0.235823,0 -0.943338,0 Q 3.768645,54.880763 2.825329,54.762863 H 2.471582 q -0.825404,-0.117935 -1.53289698,-0.117935 -0.589581,-0.117922 -0.825405,-0.235823 h -0.589592 q -1.29707402,0 -2.47622502,0.117923 -1.1791506,0 -2.3583127,0.117934 -1.1791621,0.117934 -2.358313,0.235835 -1.0612392,0 -2.2403902,0 -0.9433381,0 -1.8866661,0 -0.943327,-0.117934 -1.886644,-0.235835 -0.943327,-0.117934 -2.004566,-0.117934 -1.061251,-0.117923 -2.240402,-0.117923 -0.943327,0 -1.886643,0.235823 -0.943328,0.117935 -1.886667,0.589593 -1.061239,-0.825416 -2.594136,-0.825416 -4.834538,0 -8.254101,2.829982 -3.30163,2.82996 -3.655376,7.782421 v 5.070373 q 0,4.009144 0,8.018277 0.117934,3.891222 0.589581,7.782421 l 0.235823,15.800691 q 0,1.76864 0.353747,3.18362 0.353746,1.41501 0.943327,2.71207 -0.943327,1.29707 -1.297074,2.82997 -0.353735,1.53291 -0.353735,1.76874 0,1.06124 -0.117934,2.12248 0,0.94332 -0.117934,2.00458 0,0.58957 -0.117934,1.06123 0,0.35374 0,0.94332 -0.117923,1.5329 -0.235824,3.06582 0,1.5329 0,3.18371 0,1.17916 0.235824,2.47623 0.235835,1.29708 0.943327,2.2404 -0.589581,1.29707 -0.707492,2.59415 -0.117935,1.17915 -0.117935,1.76873 v 0.23583 q 0,0.70749 0,1.41498 0,0.7075 0.117935,1.29709 v 0.94333 q 0,0.23582 0,0.58957 0.117934,0.35374 0.117934,0.58958 -0.235835,1.76873 -0.235835,2.24039 0,0.47166 -0.117934,1.41499 v 0.23584 q -0.117923,0.94331 -0.235824,1.88664 0,0.82541 0,1.88665 0,2.71207 1.06124,4.83455 1.061228,2.12248 3.183706,3.0658 l 4.244968,4.24497 q 2.240412,2.24039 6.0137,2.24039 1.650831,0 2.476236,-0.58957 0.825404,-0.47167 1.414986,-1.17915 l 0.353746,0.35373 q 0.471658,0.47167 1.650809,0.7075 l 7.3107851,0.82541 h 0.5895698 q 0.9433275,0 2.0045667,-0.35374 1.0612504,-0.23584 1.6508314,-1.17917 2.004556,1.17917 5.542031,1.17917 3.77331,0 5.306207,-2.12248 1.650809,-2.00458 1.650809,-5.42412 0,-1.06124 -0.353735,-1.88667 -0.235835,-0.94331 -0.47167,-1.88664 -0.58957,-1.41499 -0.58957,-2.47623 0,-0.47167 0.58957,-1.65082 0.117934,-0.23583 0.235835,-0.47167 0.117934,-0.35374 0.353746,-0.58957 v -0.70749 l 0.235824,0.23582 q 0.353746,0.58959 0.589581,1.06124 0.353746,0.47167 0.589581,1.06124 l 1.886655,6.24955 q 0.353746,1.29706 0.825404,2.00455 0.589581,0.7075 1.650821,1.06124 z M 6.362815,99.217105 q 0.943327,-0.11793 1.061239,-0.471654 0.117934,-0.353747 0.117934,-1.650821 v -1.650831 q 0,0.117934 0.707493,0.117934 0.825405,0 1.179151,0 1.06125,0 2.712071,0.353747 h 0.117922 q -0.471658,1.179173 -1.297062,2.122489 -0.825405,0.825405 -1.768743,1.532896 l -0.353747,0.35375 q -0.471669,0.471665 -0.943327,0.825405 -0.471658,0.3538 -0.825405,0.8254 Q 6.952407,100.98589 6.716595,100.39628 6.598661,99.806705 6.362849,99.217125 Z M 13.7915,86.718051 q 0,0 0,0 0.117935,-0.117934 0.117935,0.117934 z"
           transform="matrix(1.1392083,0,0,1,-51.145931,-1.031712)" />
        <path
           style="font-family:JFRockOutcrop;-inkscape-font-specification:'JFRockOutcrop, Normal';stroke-width:1.22829;filter:url(#filter57856)"
           d="m -12.975359,147.32659 q -0.117923,0 -0.117923,0.11793 0,0.11794 0.117923,0.11794 0.235835,0 0.235835,-0.11794 0,-0.11793 -0.235835,-0.11793 z"
           id="path510"
           transform="matrix(1.1392083,0,0,1,-51.145931,-1.031712)" />
        <path
           id="path406"
           style="font-family:JFRockOutcrop;-inkscape-font-specification:'JFRockOutcrop, Normal';fill:url(#linearGradient50122);fill-opacity:1;stroke-width:1.311"
           d="m -63.509625,118.7026 q 0.134331,0.23583 0.402992,0.23583 0.402992,0 0.805983,-1.41499 0.402992,-1.41499 0.940314,-3.18372 0.671652,-1.76874 1.477635,-3.18372 0.805983,-1.41499 1.880628,-1.41499 0.537322,0 0.940313,0.58958 0.537322,0.58958 0.940314,1.41498 0.402991,0.7075 0.671652,1.41499 0.402992,0.7075 0.805983,0.94333 l 0.134331,-0.11792 v -0.11791 q 0,-1.29708 -1.343305,-2.59415 -1.208975,-1.29707 -1.208975,-2.59414 0,-1.29707 1.343305,-2.2404 1.343305,-1.06124 2.41795,-1.65082 0.268661,-0.11792 0.940313,-0.47166 0.671653,-0.35375 1.343305,-0.7075 0.805983,-0.35374 1.477636,-0.58957 0.671652,-0.35375 0.940314,-0.47167 h 0.268661 q 1.880627,0 3.089601,1.06124 1.208975,1.06124 2.014958,2.59415 0.805983,1.41499 1.611966,2.94789 0.805983,1.5329 1.880627,2.35831 h 0.134331 q 0,0 0,0 0.13433,0 0.13433,-0.11791 -0.671652,-0.58958 -1.208974,-1.17916 -0.402992,-0.58958 -0.402992,-1.5329 0,-0.94333 0.537322,-1.65082 0.537322,-0.7075 0.537322,-1.53291 -1.477635,0 -2.82094,0.35375 -0.134331,-0.11791 -0.134331,-0.23583 0,-1.88665 1.343305,-3.06581 1.477636,-1.29702 3.089602,-2.47609 1.611966,-1.297088 2.955271,-2.829992 1.477636,-1.532904 1.477636,-4.009133 0,0 -0.134331,-0.117916 0,-0.117915 0,-0.235831 -0.268661,-1.297072 -0.537322,-2.122482 -0.13433,-0.943325 -0.13433,-2.122482 0,-0.943326 0.940313,-1.414988 0.940314,-0.589579 0.940314,-1.297073 -1.477636,0 -2.68661,1.179157 -1.074644,1.061241 -2.55228,1.061241 -0.671653,0 -1.343305,-0.353747 -0.537322,-0.471663 -1.208975,-0.471663 -1.477635,-0.117915 -3.223932,-0.353747 -1.611966,-0.353747 -3.089602,-0.353747 -0.805983,0 -2.68661,0.471663 -1.746297,0.353747 -1.746297,1.414988 v 1.65082 q 0,0.117915 -0.402991,0.117915 -0.268661,0 -0.268661,0 -0.805983,0 -2.149289,-0.707494 -1.208974,-0.825409 -1.746296,-1.179157 h -0.268661 q 0,0.589579 0.671652,1.179157 0.671653,0.471663 1.477636,1.414988 0.940314,0.82541 1.611966,2.122482 0.671653,1.297073 0.671653,3.183724 0,2.004566 -0.940314,3.537465 -0.805983,1.532832 -0.805983,3.419442 -0.671653,0.70749 -1.746297,1.41498 -0.940313,0.58958 -1.880627,1.29708 -0.940313,0.58958 -1.746297,1.29707 -0.671652,0.70749 -1.074644,1.65082 l -3.089601,8.01826 q -0.268662,0.35375 -0.268662,1.17916 z m 18.13462,17.56943 q -2.149288,-0.58957 -2.149288,-2.59414 0,-0.35375 0,-0.70749 0,-0.47167 0.13433,-0.82541 l 1.746297,-4.36288 v -1.29708 q 0,-0.11791 -0.268661,-0.11791 -0.134331,0 -0.134331,0 -0.805983,0 -1.343305,0.82541 -0.537322,0.70749 -0.671652,1.29707 -0.537322,1.88665 -0.805984,3.06581 -0.268661,1.06124 -0.805983,1.76873 -0.537322,0.7075 -1.611966,1.06124 -1.074644,0.35375 -3.223932,0.47167 -0.537322,0 -1.074644,0.23583 -0.537322,0.23583 -0.537322,0.70749 1.074644,0 1.880627,-0.11791 0.940314,-0.11792 2.014958,-0.11792 1.074644,0 1.074644,0.58958 v 0.47166 q -0.671653,0.94333 -1.074644,1.65082 -0.268661,0.58958 -0.268661,1.5329 0,1.65082 0.805983,3.18373 0.805983,1.41499 0.805983,3.06581 0,2.47622 -1.343305,4.00913 -1.208975,1.5329 -4.298577,1.5329 -3.626924,0 -5.507551,-1.06124 -1.746297,-1.17916 -3.626924,-4.00913 0,0.11791 -0.13433,0.11791 0,0 0,0.11792 0,0.94332 0.537322,1.88665 0.671652,0.94333 0.671652,1.88665 0,0.94333 -0.805983,1.17916 -0.805983,0.23583 -1.611966,0.23583 h -0.402991 l -8.328492,-0.82541 q -0.537322,0 -0.805983,-0.35375 -0.134331,-0.47166 -0.268661,-0.94332 -0.134331,-0.47167 -0.402992,-0.82541 -0.13433,-0.35375 -0.671652,-0.35375 -0.671653,0 -0.940314,0.47166 -0.268661,0.47167 -0.671653,1.17916 -0.402991,0.58958 -1.208974,1.06124 -0.671653,0.47166 -2.014958,0.47166 -3.492593,0 -5.373221,-1.76873 -1.746296,-1.88665 -1.746296,-4.71663 0,-2.00456 0.268661,-3.7733 0.402991,-1.88665 0.402991,-3.89122 0,-1.29707 -0.13433,-2.35831 -0.134331,-1.17916 -0.134331,-2.47623 0,-0.58958 0,-2.00457 0.134331,-1.5329 0.940314,-2.12248 0,0 0.671653,0 0.805983,-0.11791 1.611966,-0.23583 0.940313,-0.23583 1.611966,-0.47166 0.671652,-0.35375 0.671652,-0.7075 0,-0.58957 -0.940313,-0.58957 -0.671653,0 -1.208975,0.35374 -0.537322,0.23583 -1.208974,0.23583 -1.746297,0 -2.149289,-1.29707 -0.402991,-1.29707 -0.402991,-2.47623 0,-3.18372 0.268661,-6.13161 0.402991,-3.06581 0.402991,-6.24953 0,-0.11792 0,-0.7075 0.134331,-0.58958 0.268661,-1.17915 0.134331,-0.7075 0.268661,-1.17916 0.268661,-0.58958 0.671653,-0.58958 l 0.134331,0.11792 q 0,0 0,0 0.13433,0 0.13433,0.11791 0.268661,0.47166 0.940314,2.12248 0.671652,1.65082 0.940313,2.2404 0.268661,0.58958 0.537322,1.29707 0.402992,0.58958 1.074644,0.94333 0,-1.88665 -0.671652,-3.53747 -0.671653,-1.65082 -1.611966,-3.30164 -0.805983,-1.65082 -1.611967,-3.30164 -0.671652,-1.76873 -0.671652,-3.53738 l -0.268661,-16.036499 q -0.671653,-4.480796 -0.671653,-8.843675 0,-4.480796 0,-8.961592 v -2.829976 q 0.268661,-3.773301 3.358263,-6.013699 3.223932,-2.240398 7.522509,-2.240398 0.940314,0 1.208975,0.471663 0.402991,0.471663 0.537322,1.179157 0.13433,0.589578 0.13433,1.297072 0,0.707494 0.134331,1.179157 0.268661,0.943325 1.074644,1.297072 0.805983,0.353747 0.805983,1.297073 0,1.414988 -0.537322,2.829976 -0.537322,1.297072 -1.208975,2.594145 -0.537322,1.297072 -1.074644,2.594144 -0.402992,1.297073 -0.402992,2.712061 v 4.834542 l 5.910543,-15.093206 q 0.134331,-0.353747 0.134331,-0.707494 0,-0.707494 -0.537322,-1.179156 -0.537322,-0.471663 -1.208975,-0.82541 -0.671653,-0.353747 -1.208975,-0.82541 -0.537322,-0.471663 -0.537322,-1.414988 0,-1.414988 1.343305,-1.768735 1.343306,-0.471663 2.686611,-0.471663 2.283618,0 4.567237,0.235832 2.283619,0.235831 4.567238,0.235831 2.68661,0 5.37322,-0.235831 2.68661,-0.235832 5.373221,-0.235832 h 0.268661 q 0.402991,0 1.208974,0.117916 0.940314,0.117916 2.014958,0.235831 1.074644,0 1.880627,0.117916 0.940314,0.117916 1.343305,0.117916 1.074644,0 2.014958,0.707494 0.940314,0.707494 0.940314,1.650819 v 4.834543 l 0.268661,0.589578 h 0.13433 q 0.134331,-0.353747 0.268661,-1.532904 0.268661,-1.179156 0.402992,-1.532903 0.13433,-0.471663 0.268661,-0.943326 0.268661,-0.471663 0.940313,-0.471663 h 0.402992 l 2.283619,1.061242 h 1.074644 q 0.13433,0 0.13433,-0.117916 0,-0.117916 0,-0.117916 v -0.117915 q -0.940313,-0.943326 -2.014957,-1.532904 -0.940314,-0.707494 -1.746297,-1.532904 v -0.353747 q 0,-0.589578 1.074644,-0.589578 1.074644,-0.117916 1.611966,-0.117916 3.626924,0 7.79117,0.82541 4.298576,0.825409 7.656839,1.650819 4.432907,1.179157 8.328492,4.009133 3.895585,2.71206 6.3135343,6.131615 0.1343305,0.589578 0.1343305,1.532904 0,0.943325 -0.2686611,1.768735 -0.268661,0.825409 -0.268661,1.768735 0,0.707494 0.8059831,0.943325 0.8059831,0 1.6119662,0.117916 0.805983,0 1.4776356,0.235831 1.3433051,0.471663 2.2836187,2.594145 0.94031363,2.004566 1.47763569,4.598711 0.67165261,2.476229 0.94031361,4.834543 0.4029915,2.358313 0.4029915,3.183723 0,2.358313 -0.6716525,4.009133 -0.5373221,1.650819 -2.5522798,3.301639 -0.1343305,0.117915 -0.1343305,0.589578 0,0.589578 0.1343305,1.297068 0.1343305,0.589603 0.1343305,1.179133 0,3.06571 -1.7462967,6.13152 -1.7462966,3.06581 -4.5672374,5.54204 -2.8209412,2.47623 -6.3135342,4.00913 -3.492593,1.53291 -6.985187,1.53291 h -1.208974 q -0.402992,-0.11792 -1.343305,-0.47167 -0.805984,-0.47166 -1.746297,-0.94332 -0.805983,-0.58958 -1.477636,-0.94333 -0.671652,-0.47166 -0.671652,-0.58958 v -1.29707 q 0,-0.23583 -0.402992,-0.23583 -0.268661,-0.11792 -0.402991,-0.11792 -0.537322,0 -0.537322,0.47167 0,1.29707 1.074644,2.24039 1.074644,0.82541 2.283618,1.53291 1.343306,0.58958 2.41795,1.06124 1.074644,0.47166 1.074644,1.06124 0,0.47166 -0.134331,0.58958 l -4.432907,3.89122 q -0.940313,0.70749 -1.477635,2.00456 -0.402992,1.29707 -0.402992,2.35832 l 0.671653,-0.58958 q 0.671652,-0.94333 1.611966,-2.35832 0.940313,-1.41498 2.149288,-2.71206 1.343305,-1.41498 2.820941,-2.35831 1.477635,-0.94333 3.089602,-0.94333 1.208974,0 2.82094,0.82541 1.746297,0.7075 3.223933,1.76874 1.477635,1.06124 2.5522795,2.35831 1.0746441,1.17916 1.0746441,2.12249 0,0.94332 -0.8059831,1.5329 -0.8059831,0.47166 -0.8059831,1.41499 0,0.47166 0.2686611,0.47166 v -0.11792 q 0.1343305,0 0.1343305,-0.11791 0.1343305,-0.11792 0.268661,-0.11792 l 1.2089746,-2.12248 q 0.2686611,-0.58958 0.4029916,-0.58958 0.268661,-0.11791 0.6716525,-0.11791 1.0746441,0 2.1492883,0.58957 1.0746441,0.58958 1.7462966,1.17916 3.89558493,3.06581 4.8358985,6.83911 0.9403136,3.65539 0.9403136,8.13618 0,1.06124 -0.268661,2.47623 -0.1343305,1.29707 -0.6716526,2.47623 -0.537322,1.17916 -1.61196614,2.00457 -1.07464411,0.82541 -2.68661026,0.94332 -1.3433051,0.11792 -2.5522798,0.11792 -1.2089746,0 -2.5522797,0.47166 l -3.4925932,0.11792 h -16.925645 l -5.37322,-0.35375 q -1.880628,-0.11792 -2.41795,-1.76874 l -2.149288,-6.24953 q -0.805983,-2.47623 -3.089602,-4.24496 -2.283618,-1.76874 -4.298576,-3.41956 z" />
      </g>
    </g>
  </g>
</svg>
